<?xml version="1.0" encoding="UTF-8" standalone="no"?><!DOCTYPE svg PUBLIC "-//W3C//DTD SVG 1.1//EN" "http://www.w3.org/Graphics/SVG/1.1/DTD/svg11.dtd"><svg width="100%" height="100%" viewBox="0 0 20 20" version="1.1" xmlns="http://www.w3.org/2000/svg" xmlns:xlink="http://www.w3.org/1999/xlink" xml:space="preserve" xmlns:serif="http://www.serif.com/" style="fill-rule:evenodd;clip-rule:evenodd;stroke-linecap:round;stroke-linejoin:round;stroke-miterlimit:1.5;"><path d="M19,5.5c0,-2.484 -2.016,-4.5 -4.5,-4.5l-9,0c-2.484,0 -4.5,2.016 -4.5,4.5l0,9c0,2.484 2.016,4.5 4.5,4.5l9,0c2.484,0 4.5,-2.016 4.5,-4.5l0,-9Z" style="fill:none;stroke:#c00000;stroke-width:2px;"/><path d="M10.143,17.11c-0.332,0 -0.622,-0.107 -0.87,-0.322c-0.242,-0.21 -0.357,-0.507 -0.357,-0.885c0,-0.338 0.117,-0.622 0.353,-0.852c0.237,-0.232 0.529,-0.347 0.874,-0.347c0.338,0 0.623,0.114 0.854,0.345c0.23,0.231 0.345,0.516 0.345,0.854c-0,0.373 -0.115,0.669 -0.355,0.882c-0.243,0.217 -0.525,0.325 -0.844,0.325l0,0Zm-4.433,-10.235c-0,-0.566 0.184,-1.138 0.548,-1.719c0.369,-0.59 0.908,-1.076 1.616,-1.464c0.714,-0.39 1.547,-0.583 2.498,-0.583c0.886,0 1.668,0.162 2.346,0.488c0.667,0.322 1.184,0.758 1.547,1.31c0.36,0.548 0.541,1.143 0.541,1.786c-0,0.501 -0.1,0.939 -0.303,1.316c-0.208,0.386 -0.455,0.72 -0.742,1.001c-0.301,0.294 -0.841,0.79 -1.62,1.487c-0,0 -0.001,0.001 -0.001,0.001c-0.224,0.204 -0.403,0.384 -0.538,0.538c-0.145,0.166 -0.251,0.318 -0.322,0.456c-0.07,0.138 -0.125,0.275 -0.164,0.413l-0.162,0.674c-0.05,0.273 -0.146,0.48 -0.302,0.617c-0.152,0.133 -0.358,0.193 -0.614,0.193c-0.269,-0 -0.496,-0.087 -0.68,-0.263c-0.187,-0.179 -0.27,-0.449 -0.27,-0.802c-0,-0.501 0.075,-0.935 0.23,-1.302c0.155,-0.366 0.361,-0.688 0.617,-0.966c0.269,-0.291 0.633,-0.637 1.09,-1.038c0.412,-0.36 0.71,-0.633 0.894,-0.816c0.196,-0.196 0.361,-0.415 0.495,-0.656c0.143,-0.256 0.214,-0.534 0.214,-0.834c0,-0.573 -0.212,-1.058 -0.639,-1.452c-0.418,-0.387 -0.956,-0.584 -1.617,-0.584c-0.776,-0 -1.342,0.208 -1.709,0.6c-0.349,0.372 -0.647,0.918 -0.889,1.642c-0,0.002 -0.001,0.005 -0.002,0.007c-0.181,0.602 -0.51,0.919 -1.017,0.919c-0.293,-0 -0.54,-0.103 -0.741,-0.31c-0.199,-0.204 -0.304,-0.422 -0.304,-0.659Z" style="fill:#c00000;fill-rule:nonzero;"/></svg>