<?xml version="1.0" encoding="UTF-8" standalone="no"?><!DOCTYPE svg PUBLIC "-//W3C//DTD SVG 1.1//EN" "http://www.w3.org/Graphics/SVG/1.1/DTD/svg11.dtd"><svg width="100%" height="100%" viewBox="0 0 20 20" version="1.1" xmlns="http://www.w3.org/2000/svg" xmlns:xlink="http://www.w3.org/1999/xlink" xml:space="preserve" xmlns:serif="http://www.serif.com/" style="fill-rule:evenodd;clip-rule:evenodd;stroke-linecap:round;stroke-linejoin:round;stroke-miterlimit:1.5;"><path d="M19,5.5c0,-2.484 -2.016,-4.5 -4.5,-4.5l-9,0c-2.484,0 -4.5,2.016 -4.5,4.5l0,9c0,2.484 2.016,4.5 4.5,4.5l9,0c2.484,0 4.5,-2.016 4.5,-4.5l0,-9Z" style="fill:none;stroke:#1c9500;stroke-width:2px;"/><path d="M10.01,17.13c-0.339,0 -0.634,-0.109 -0.886,-0.328c-0.248,-0.215 -0.366,-0.518 -0.366,-0.905c-0,-0.339 0.119,-0.628 0.357,-0.866c0.238,-0.238 0.53,-0.357 0.875,-0.357c0.347,0 0.643,0.12 0.887,0.359c0.243,0.238 0.365,0.526 0.365,0.864c0,0.382 -0.117,0.684 -0.362,0.902c-0.249,0.221 -0.539,0.331 -0.87,0.331l-0,0Zm-0.861,-6.101l-0.306,-4.571c-0.057,-0.885 -0.085,-1.521 -0.085,-1.907c-0,-0.469 0.116,-0.837 0.361,-1.1c0.24,-0.256 0.557,-0.381 0.948,-0.381c0.454,0 0.765,0.142 0.918,0.456c0.175,0.359 0.257,0.876 0.257,1.551c0,0.413 -0.022,0.833 -0.066,1.259l-0.411,4.713c-0.042,0.529 -0.128,0.935 -0.267,1.217c-0.11,0.225 -0.292,0.337 -0.546,0.337c-0.255,0 -0.435,-0.103 -0.534,-0.318c-0.127,-0.275 -0.215,-0.694 -0.269,-1.256l-0,0Z" style="fill:#1c9500;fill-rule:nonzero;"/></svg>